# xmcd
#
# Track frame offsets:
#	150
#	21720
#	31157
#	60015
#	77985
#	92010
#	112110
#	128835
#	146385
#	171600
#	191700
#	207195
#	216270
#	237420
#	257972
#	279885
#	289320
#	301920
#
# Disc length: 4465 seconds
#
# Revision: 0
# Processed by: cddbd v1.5.2PL0 Copyright (c) Steve Scherf et al.
# Submitted via: EZCDAudioConverter 1.2.3.1
#
DISCID=10116f12
DTITLE=Various Artist - Soul funk disco
DYEAR=2009
DGENRE=Soul
TTITLE0=Billy paul - Me and mrs jones
TTITLE1=Bill withers - Ain't no sunshine
TTITLE2=Harold melvin and the blue notes - The love I lost
TTITLE3=Marvin gaye - Sexual healing
TTITLE4=The o'jays - Back stabbers
TTITLE5=Deniece williams - That's what friends are for
TTITLE6=Odyssey - You keep me dancin'
TTITLE7=Aaron neville - Stand by me
TTITLE8=The isley brothers - That lady
TTITLE9=The manhattans - Kiss and say goodbye
TTITLE10=Harold melvin and the blue notes - If you don't know me by now
TTITLE11=Bill withers - Grandma's hands
TTITLE12=The o'jays - Now that we found love
TTITLE13=Billy paul - It's too late
TTITLE14=Etta james - It's a man's man's man's world
TTITLE15=Gladys knight and the pips - Every beat of my heart
TTITLE16=The isley brothers - It's your thing
TTITLE17=The o'jays - For the love of money
EXTD=
EXTT0=
EXTT1=
EXTT2=
EXTT3=
EXTT4=
EXTT5=
EXTT6=
EXTT7=
EXTT8=
EXTT9=
EXTT10=
EXTT11=
EXTT12=
EXTT13=
EXTT14=
EXTT15=
EXTT16=
EXTT17=
PLAYORDER=
